<?xml version="1.0" encoding="UTF-8" standalone="no"?>
<svg
   version="1.1"
   id="svg1"
   width="713"
   height="713"
   viewBox="0 0 713 713"
   xmlns="http://www.w3.org/2000/svg"
   xmlns:svg="http://www.w3.org/2000/svg">
  <defs
     id="defs1" />
  <g
     id="g1">
    <path
       style="fill:#FFFFFF"
       d="M 330,595.88451 C 248.16067,586.54366 177.23247,536.49471 140.9706,462.5 124.51077,428.91264 116.80565,395.35637 116.74592,357 c -0.0331,-21.27278 2.02652,-38.80214 6.69734,-57 1.91022,-7.44236 2.1763,-9.76714 1.22848,-10.73335 -0.66543,-0.67834 -12.22629,-7.58497 -25.690805,-15.34807 -13.464514,-7.76309 -24.860669,-14.47282 -25.324788,-14.9105 -0.889648,-0.83897 55.082903,-98.69397 56.837583,-99.3673 0.56084,-0.21521 12.49168,6.27928 26.51299,14.4322 14.0213,8.15293 26.07097,14.8468 26.77704,14.87526 0.70607,0.0285 5.16177,-3.60109 9.90157,-8.06569 C 250.85441,127.03276 334.48089,105.165 412.5,123.66399 c 62.76559,14.88225 117.06218,54.79184 150.42862,110.56948 2.87342,4.8034 5.07747,9.42973 4.89789,10.28073 -0.3008,1.42544 -89.38631,49.19087 -92.78185,49.74731 -0.80155,0.13135 -2.90583,-2.00767 -4.68415,-4.76151 C 458.62507,271.32701 445.84312,257.83928 430.74937,247.70167 394.28644,223.21158 348.48859,218.1217 308.12194,234.07313 297.78891,238.15637 285.5,245.08747 285.5,246.8322 c 0,0.73271 24.525,15.49798 54.5,32.8117 62.33457,36.0048 59,33.98526 59,35.73247 0,1.22316 -54.20761,95.99709 -56.05927,98.01128 -0.45701,0.49712 -26.14758,-13.73621 -58.39295,-32.3514 -37.85165,-21.85169 -58.13765,-33.02387 -59.21367,-32.61096 -1.43621,0.55112 -1.5624,2.06449 -1.0299,12.35139 1.85658,35.86544 14.78616,65.56601 39.09136,89.79682 10.96507,10.9315 20.70963,18.003 34.35702,24.93241 36.40162,18.48281 81.54082,18.46822 118.30828,-0.0382 18.07914,-9.09992 37.20785,-25.36722 47.4157,-40.32294 4.01166,-5.87756 5.39317,-7.21163 7.12517,-6.88054 3.45539,0.66054 89.39826,54.01216 89.39826,55.49665 0,4.09396 -19.67567,29.05217 -34.48152,43.73915 -38.62134,38.31128 -88.31974,62.09713 -143.01848,68.44921 -10.4704,1.21591 -41.61628,1.17753 -52.5,-0.0647 z"
       id="path1" />
  </g>
</svg>
